<?xml version="1.0" standalone="no"?>
<!DOCTYPE svg PUBLIC "-//W3C//DTD SVG 20010904//EN"
 "http://www.w3.org/TR/2001/REC-SVG-20010904/DTD/svg10.dtd">
<svg version="1.0" xmlns="http://www.w3.org/2000/svg"
 width="512.000000pt" height="512.000000pt" viewBox="0 0 512.000000 512.000000"
 preserveAspectRatio="xMidYMid meet">
<metadata>
Created by potrace 1.14, written by Peter Selinger 2001-2017
</metadata>
<g transform="translate(0.000000,512.000000) scale(0.100000,-0.100000)"
fill="#000000" stroke="none">
<path d="M777 4764 c-1 -1 -23 -4 -49 -7 -58 -7 -128 -37 -171 -73 -96 -80
-180 -258 -156 -331 6 -18 19 -38 29 -43 11 -6 158 -10 374 -10 l356 0 1
-1732 c0 -953 3 -1744 5 -1758 19 -102 57 -174 134 -250 80 -80 150 -114 255
-127 72 -9 2522 -9 2630 0 291 24 442 104 508 270 33 83 34 116 3 150 -36 39
-85 47 -269 44 -92 -1 -168 0 -168 3 -1 3 -2 768 -3 1700 -2 1843 1 1745 -59
1867 -80 164 -227 266 -417 289 -43 5 -2997 13 -3003 8z"/>
</g>
</svg>
